<svg width="50" height="50" viewBox="0 0 50 50" fill="none" xmlns="http://www.w3.org/2000/svg">
<g clip-path="url(#clip0_48217_709)">
<path d="M10.5615 38.9778C11.6393 39.65 13.431 40.3972 15.3254 40.3972C17.0504 40.3972 18.6532 39.8972 19.981 39.0444C19.981 39.0444 19.9837 39.0444 19.9865 39.0417L25.0004 35.9083V47.2222C24.206 47.2222 23.406 47.0056 22.7115 46.5722L10.5615 38.9778Z" fill="#225086"/>
<path d="M21.8139 4.18611L0.980545 27.6861C-0.627788 29.5028 -0.208343 32.2472 1.87777 33.55C1.87777 33.55 9.58888 38.3694 10.5611 38.9778C11.6389 39.65 13.4305 40.3972 15.325 40.3972C17.05 40.3972 18.6528 39.8972 19.9805 39.0444C19.9805 39.0444 19.9833 39.0444 19.9861 39.0417L25 35.9083L12.8778 28.3306L25.0028 14.6528V2.77778C23.825 2.77778 22.6472 3.24722 21.8139 4.18611Z" fill="#66DDFF"/>
<path d="M12.8779 28.3306L13.0224 28.4194L25.0002 35.9083H25.0029V14.6556L25.0002 14.6528L12.8779 28.3306Z" fill="#CBF8FF"/>
<path d="M48.1224 33.55C50.2085 32.2472 50.6279 29.5028 49.0196 27.6861L35.3502 12.2667C34.2474 11.7528 33.0113 11.4583 31.7029 11.4583C29.1335 11.4583 26.8363 12.5667 25.3085 14.3083L25.0057 14.65L37.1279 28.3278L25.0029 35.9056V47.2194C25.8002 47.2194 26.5946 47.0028 27.289 46.5694L48.1224 33.5472V33.55Z" fill="#074793"/>
<path d="M25.0028 2.77778V14.6528L25.3056 14.3111C26.8333 12.5694 29.1306 11.4611 31.7 11.4611C33.0111 11.4611 34.2444 11.7583 35.3472 12.2694L28.1833 4.18889C27.3528 3.25 26.175 2.78056 25 2.78056L25.0028 2.77778Z" fill="#0294E4"/>
<path d="M37.1251 28.3306L25.0029 14.6556V35.9056L37.1251 28.3306Z" fill="#96BCC2"/>
</g>
<defs>
<clipPath id="clip0_48217_709">
<rect width="50" height="50" fill="white"/>
</clipPath>
</defs>
</svg>
