<svg width="171" height="20" viewBox="0 0 171 20" fill="none" xmlns="http://www.w3.org/2000/svg">
<path d="M10.3555 16.2404H3.19712V1.62491C3.19712 1.18076 3.036 0.807952 2.72066 0.499579C2.41453 0.186603 2.03934 0.0255127 1.59741 0.0255127C1.15547 0.0255127 0.78029 0.186603 0.474158 0.499579C0.15882 0.805651 0 1.18076 0 1.62491V17.8352C0 18.2771 0.15882 18.6499 0.474158 18.9582C0.78029 19.2735 1.15547 19.43 1.59741 19.43H10.3532C10.7975 19.43 11.175 19.2735 11.4903 18.9582C11.7964 18.6499 11.9506 18.2771 11.9506 17.8352C11.9506 17.3934 11.7964 17.0183 11.4903 16.7122C11.175 16.3946 10.7952 16.2381 10.3532 16.2381L10.3555 16.2404Z" fill="#2A3540"/>
<path d="M45.6274 0H34.3811C33.9392 0 33.5571 0.158789 33.2417 0.474066C32.9333 0.780138 32.7837 1.15525 32.7837 1.5948C32.7837 2.03434 32.9333 2.41175 33.2417 2.72013C33.5571 3.03771 33.9369 3.19419 34.3811 3.19419H38.4022V17.8373C38.4022 18.2792 38.5588 18.6566 38.8764 18.9742C39.1802 19.2802 39.5531 19.4321 39.9997 19.4321C40.4462 19.4321 40.8191 19.2802 41.1229 18.9742C41.4382 18.6566 41.5948 18.2792 41.5948 17.8373V3.19419H45.6297C46.067 3.19419 46.4376 3.03771 46.7553 2.72013C47.0729 2.40255 47.211 2.03894 47.211 1.5948C47.211 1.15065 47.0614 0.780138 46.7553 0.474066C46.4376 0.158789 46.067 0 45.6297 0H45.6274Z" fill="#2A3540"/>
<path d="M53.0736 0.0966615C52.6317 0.0966615 52.2588 0.255451 51.9504 0.570728C51.635 0.879101 51.4785 1.24961 51.4785 1.69376V17.8373C51.4785 18.2792 51.635 18.652 51.9504 18.9604C52.2588 19.2756 52.6317 19.4321 53.0736 19.4321C53.5156 19.4321 53.8907 19.2756 54.1992 18.9604C54.5145 18.652 54.6733 18.2792 54.6733 17.8373V1.69146C54.6733 1.24731 54.5145 0.8768 54.1992 0.568426C53.893 0.253149 53.5179 0.0943604 53.0736 0.0943604V0.0966615Z" fill="#2A3540"/>
<path d="M74.7629 0.0275699C74.3233 0.0275699 73.9412 0.18866 73.6258 0.501636C73.3197 0.807708 73.1655 1.18282 73.1655 1.62697V13.1818L63.4337 0.653521C63.2266 0.381969 62.9619 0.197865 62.6327 0.0966085C62.3013 -0.00234707 61.9744 0.00685824 61.6614 0.121923C61.3345 0.230084 61.0721 0.425693 60.8742 0.706451C60.6762 0.975702 60.5773 1.28408 60.5773 1.62697V17.8373C60.5773 18.2791 60.7361 18.6519 61.0514 18.9603C61.3576 19.2756 61.7327 19.4321 62.1747 19.4321C62.6166 19.4321 62.9941 19.2756 63.3002 18.9603C63.6156 18.6519 63.7744 18.2791 63.7744 17.8373V6.29629L73.5016 18.813V18.8245H73.52C73.5476 18.859 73.5591 18.8775 73.5591 18.8775C73.5591 18.8775 73.5752 18.8959 73.612 18.9327V18.9465L73.6258 18.958C73.665 18.9948 73.7018 19.0316 73.7455 19.0662C73.757 19.0754 73.7755 19.0869 73.8031 19.1053C73.8399 19.1329 73.8698 19.1559 73.8975 19.172C73.9067 19.1812 73.9251 19.1973 73.9527 19.2134C73.9803 19.2226 74.0102 19.2365 74.0471 19.2549C74.0632 19.2733 74.0816 19.2825 74.1 19.2825C74.1276 19.2986 74.1622 19.3124 74.2105 19.3216C74.2381 19.34 74.2634 19.3515 74.2634 19.3515C74.2887 19.3607 74.3279 19.3676 74.3693 19.3791C74.4176 19.3952 74.4338 19.4021 74.4246 19.3906C74.4614 19.3998 74.5074 19.4114 74.5604 19.4183C74.5949 19.4275 74.6064 19.4275 74.588 19.4183C74.6524 19.4275 74.71 19.4298 74.7629 19.4298C74.8366 19.4298 74.9125 19.4252 74.9908 19.4183L75.0345 19.4044C75.1174 19.3952 75.1933 19.3768 75.2647 19.3515C75.2463 19.3607 75.2578 19.3561 75.2923 19.3354C75.366 19.3101 75.435 19.2779 75.511 19.2434H75.5248C75.5846 19.2065 75.6514 19.1605 75.725 19.1076L75.7411 19.0938C75.7757 19.0685 75.7803 19.0639 75.7527 19.08C75.7711 19.0708 75.7941 19.0547 75.8194 19.027C75.8562 18.9994 75.8769 18.981 75.8839 18.9741C75.8839 18.9741 75.9023 18.9557 75.9276 18.9189C75.9575 18.8936 75.9736 18.8729 75.9828 18.8659L76.0266 18.813C76.0542 18.7762 76.0703 18.7509 76.0772 18.7302L76.1209 18.691C76.1347 18.6542 76.1509 18.6266 76.1578 18.6105L76.1992 18.5415L76.2268 18.4747C76.236 18.4563 76.2452 18.4287 76.2544 18.3919C76.2728 18.3574 76.2798 18.3343 76.2798 18.3251C76.289 18.3136 76.3005 18.2883 76.3097 18.2423L76.3212 18.1733C76.3327 18.1572 76.335 18.1295 76.335 18.095C76.3442 18.0582 76.3465 18.0306 76.3465 18.0145V17.9477C76.3557 17.9109 76.3603 17.881 76.3603 17.8649V1.62467C76.3603 1.18052 76.2015 0.807708 75.8862 0.499335C75.58 0.186359 75.2048 0.0252686 74.7629 0.0252686V0.0275699Z" fill="#2A3540"/>
<path d="M88.6147 3.22177C89.441 3.22177 90.1776 3.37135 90.8198 3.66592C91.5471 4.00881 91.9983 4.48288 92.1594 5.08812C92.2676 5.51155 92.5116 5.83604 92.8914 6.05926C93.2688 6.27788 93.6716 6.33081 94.0952 6.22265C94.5187 6.11679 94.8386 5.87286 95.055 5.49314C95.2829 5.11343 95.3404 4.71301 95.2322 4.28957C94.8524 2.84666 93.9686 1.74434 92.5668 0.989514C91.4044 0.356659 90.0855 0.0413818 88.617 0.0413818C86.9091 0.0413818 85.4475 0.600596 84.2322 1.71902C83.0123 2.83745 82.3678 4.20902 82.2964 5.83373C82.232 7.1938 82.6854 8.38817 83.6499 9.41454C84.8238 10.6526 86.5132 11.2878 88.7252 11.3223H88.7528C88.7344 11.3223 88.7436 11.3223 88.7782 11.3223H88.792C90.1109 11.343 91.05 11.6491 91.6093 12.2474C91.9592 12.6156 92.1272 13.0345 92.1065 13.5016C92.0719 14.2795 91.7497 14.9307 91.1351 15.4508C90.5275 15.9824 89.8047 16.2494 88.9554 16.2494C88.106 16.2494 87.3833 16.0998 86.7342 15.8029C86.0138 15.4623 85.5695 14.986 85.4084 14.383C85.2979 13.9596 85.0585 13.6328 84.6764 13.4096C84.299 13.1933 83.8961 13.138 83.4726 13.2462C83.0491 13.3567 82.7246 13.5983 82.499 13.978C82.2803 14.3554 82.2297 14.7581 82.3379 15.1816C82.7131 16.6268 83.6038 17.7245 84.9987 18.4816C86.1634 19.1145 87.48 19.4298 88.9531 19.4298C90.6495 19.4298 92.1088 18.8683 93.3379 17.7521C94.5578 16.6337 95.2 15.269 95.2714 13.6512C95.3358 12.282 94.8824 11.0853 93.9179 10.0658C92.7463 8.82311 91.0523 8.18105 88.8426 8.14653H88.7735C87.4592 8.12812 86.5201 7.82665 85.9608 7.24213C85.6087 6.86471 85.4429 6.43667 85.459 5.96951C85.4959 5.20088 85.8158 4.54961 86.4212 4.01802C87.0334 3.48642 87.7677 3.22177 88.6147 3.22177Z" fill="#2A3540"/>
<path d="M101.615 0.0437012C101.175 0.0437012 100.796 0.200189 100.48 0.515466C100.163 0.830743 100.006 1.21046 100.006 1.65461V17.8235C100.006 18.263 100.163 18.645 100.48 18.9603C100.796 19.2756 101.175 19.4321 101.615 19.4321C102.055 19.4321 102.439 19.2756 102.752 18.9603C103.056 18.645 103.215 18.263 103.215 17.8235V1.65461C103.215 1.21046 103.058 0.830743 102.752 0.515466C102.437 0.200189 102.055 0.0437012 101.615 0.0437012Z" fill="#2A3540"/>
<path d="M113.16 0.0437012C112.716 0.0437012 112.339 0.200189 112.023 0.515466C111.708 0.830743 111.547 1.21046 111.547 1.65461V8.08442H106.52C105.604 8.08442 104.865 8.82543 104.865 9.73674C104.865 10.6481 105.604 11.3891 106.52 11.3891H111.547V17.8235C111.547 18.263 111.708 18.645 112.023 18.9603C112.339 19.2756 112.719 19.4321 113.16 19.4321C113.602 19.4321 113.98 19.2756 114.295 18.9603C114.613 18.645 114.769 18.263 114.769 17.8235V1.65461C114.769 1.21046 114.613 0.830743 114.295 0.515466C113.98 0.200189 113.6 0.0437012 113.16 0.0437012Z" fill="#2A3540"/>
<path d="M152.074 8.8784C152.81 7.91416 153.186 6.83485 153.186 5.64279C153.186 4.08251 152.594 2.75236 151.413 1.65465C150.239 0.552328 148.817 0.00231934 147.148 0.00231934H141.543C141.111 0.00231934 140.735 0.161109 140.42 0.476386C140.112 0.782457 139.96 1.15757 139.96 1.59711V17.7269C139.96 18.1595 140.112 18.5346 140.42 18.8499C140.735 19.1583 141.111 19.3102 141.543 19.3102C141.976 19.3102 142.36 19.156 142.667 18.8499C142.982 18.5346 143.138 18.1595 143.138 17.7269V3.1827H147.148C147.933 3.1827 148.603 3.42204 149.164 3.89841C149.721 4.37708 150.005 4.9593 150.005 5.64279C150.005 6.32627 149.735 6.87168 149.204 7.34804C148.722 7.76918 148.152 7.99701 147.493 8.06605H146.303C145.39 8.06605 144.653 8.80706 144.653 9.71607C144.653 10.4939 145.189 11.136 145.91 11.3178L147.915 15.3773L148.145 15.8651C148.156 15.8881 148.172 15.9042 148.184 15.925L149.475 18.5415C149.763 19.1376 150.239 19.4344 150.895 19.4344C151.142 19.4344 151.374 19.3815 151.6 19.2733C151.998 19.0754 152.26 18.7671 152.396 18.3528C152.541 17.9386 152.52 17.5382 152.329 17.1515L151.28 15.0182C151.264 14.8272 151.215 14.6408 151.13 14.459L149.427 10.8552C150.511 10.441 151.399 9.78741 152.071 8.88301L152.074 8.8784Z" fill="#2A3540"/>
<path d="M169.367 16.2241H161.184V11.3155H167.081C167.525 11.3155 167.903 11.1613 168.216 10.8552C168.536 10.5399 168.692 10.1602 168.692 9.71605C168.692 9.27191 168.536 8.8968 168.216 8.57922C167.903 8.27315 167.525 8.12126 167.081 8.12126H161.184V3.208L169.355 3.23332H169.367C169.809 3.23332 170.186 3.07913 170.49 2.76155C170.805 2.45778 170.962 2.08267 170.962 1.63852C170.962 1.19437 170.81 0.816959 170.504 0.501682C170.186 0.188706 169.806 0.0276157 169.364 0.0276157L159.582 0H159.571C159.126 0 158.753 0.158789 158.445 0.474066C158.13 0.780138 157.971 1.16215 157.971 1.6109V17.8373C157.971 18.2792 158.13 18.652 158.445 18.9603C158.753 19.2756 159.126 19.4321 159.571 19.4321H169.367C169.809 19.4321 170.186 19.2756 170.49 18.9603C170.805 18.652 170.962 18.2792 170.962 17.8373C170.962 17.3955 170.805 17.0158 170.49 16.6982C170.186 16.3829 169.809 16.2241 169.367 16.2241Z" fill="#2A3540"/>
<path d="M134.215 13.1012V13.0874L129.234 1.07464C129.217 1.02862 129.19 0.984892 129.167 0.938867C129.167 0.92736 129.155 0.904347 129.125 0.869828C129.098 0.833007 129.084 0.809994 129.084 0.80309C129.084 0.796187 129.066 0.770872 129.029 0.734051L128.99 0.681122C128.99 0.681122 128.969 0.651205 128.932 0.614385C128.909 0.586769 128.893 0.57066 128.893 0.561454C128.877 0.552249 128.854 0.533839 128.826 0.506223C128.799 0.480909 128.78 0.467102 128.773 0.467102C128.764 0.457896 128.743 0.439486 128.707 0.411871L128.651 0.372749C128.651 0.372749 128.614 0.347434 128.571 0.317518C128.527 0.289902 128.506 0.282999 128.515 0.289902C128.426 0.234671 128.327 0.195549 128.219 0.167934C128.235 0.167934 128.219 0.163331 128.161 0.156427C128.117 0.140318 128.087 0.12651 128.071 0.12651L128.002 0.115004L127.919 0.101196H127.611L127.544 0.115004C127.498 0.124209 127.466 0.12651 127.447 0.12651L127.395 0.140318C127.339 0.158729 127.309 0.167934 127.3 0.167934C127.282 0.177139 127.249 0.186344 127.206 0.195549C127.148 0.223165 127.132 0.230069 127.148 0.223165C127.167 0.21396 127.153 0.223165 127.111 0.248479C127.065 0.269191 127.031 0.282998 127.01 0.292203C127.006 0.292203 126.978 0.30371 126.932 0.333627L126.877 0.37505C126.877 0.37505 126.844 0.402665 126.81 0.42798C126.764 0.455595 126.748 0.469403 126.757 0.469403C126.748 0.469403 126.727 0.487813 126.69 0.522332C126.66 0.540743 126.644 0.554551 126.635 0.563756C126.635 0.572961 126.614 0.593673 126.582 0.628192C126.554 0.658109 126.538 0.676519 126.538 0.683423C126.529 0.692628 126.513 0.711038 126.485 0.736353C126.458 0.773173 126.446 0.798488 126.446 0.805392C126.435 0.814597 126.419 0.835308 126.389 0.872129L126.363 0.941168C126.336 0.987194 126.313 1.03092 126.294 1.07694L121.316 13.0897V13.1035L119.596 17.2297C119.433 17.637 119.433 18.0398 119.596 18.4471C119.764 18.8521 120.052 19.1444 120.459 19.3124C120.662 19.3929 120.759 19.432 120.759 19.432H121.072C121.785 19.432 122.275 19.1053 122.547 18.4448L123.848 15.3058L125.16 12.1231L127.756 5.84752L130.332 12.0288H127.834C126.92 12.0288 126.184 12.7675 126.184 13.6788C126.184 14.5901 126.92 15.3311 127.834 15.3311H131.694L132.979 18.4448C133.255 19.103 133.743 19.432 134.461 19.432C134.668 19.432 134.868 19.3906 135.069 19.3124C135.474 19.1421 135.759 18.8521 135.932 18.4471C136.095 18.0398 136.095 17.6347 135.932 17.2297L134.215 13.1035V13.1012Z" fill="#2A3540"/>
<path d="M29.635 13.1012V13.0874L24.654 1.07464C24.6356 1.02862 24.6103 0.984892 24.5849 0.938867C24.5849 0.92736 24.5711 0.904347 24.5435 0.869828C24.5159 0.833007 24.5044 0.809994 24.5044 0.80309C24.5044 0.796187 24.486 0.770872 24.4468 0.734051L24.4077 0.681122C24.4077 0.681122 24.3893 0.651205 24.3548 0.614385C24.3248 0.586769 24.311 0.57066 24.311 0.561454C24.2972 0.552249 24.2742 0.533839 24.2443 0.506223C24.219 0.480909 24.1982 0.467102 24.189 0.467102C24.1821 0.457896 24.1591 0.439486 24.1223 0.411871L24.067 0.372749C24.067 0.372749 24.0302 0.347434 23.9865 0.317518C23.9428 0.289902 23.922 0.282999 23.9335 0.289902C23.8415 0.234671 23.7402 0.195549 23.6343 0.167934C23.6504 0.167934 23.6343 0.163331 23.5814 0.156427C23.5376 0.140318 23.5031 0.12651 23.487 0.12651L23.418 0.115004L23.3351 0.101196H23.0244L22.9553 0.115004C22.9116 0.124209 22.877 0.12651 22.8609 0.12651L22.808 0.140318C22.7551 0.158729 22.7251 0.167934 22.7159 0.167934C22.6952 0.177139 22.663 0.186344 22.6169 0.195549C22.564 0.223165 22.5456 0.230069 22.564 0.223165C22.5824 0.21396 22.5686 0.223165 22.5249 0.248479C22.4788 0.269191 22.4489 0.282998 22.4282 0.292203C22.419 0.292203 22.3914 0.30371 22.3453 0.333627L22.2924 0.37505C22.2924 0.37505 22.2602 0.402665 22.2233 0.42798C22.1773 0.455595 22.1589 0.469403 22.1727 0.469403C22.1612 0.469403 22.1405 0.487813 22.106 0.522332C22.0783 0.540743 22.0576 0.554551 22.0507 0.563756C22.0507 0.572961 22.0323 0.593673 21.9978 0.628192C21.9702 0.658109 21.954 0.676519 21.954 0.683423C21.9448 0.692628 21.9287 0.711038 21.8988 0.736353C21.8735 0.773173 21.8597 0.798488 21.8597 0.805392C21.8505 0.814597 21.8321 0.835308 21.8044 0.872129L21.7791 0.941168C21.7515 0.987194 21.7308 1.03092 21.7124 1.07694L16.7314 13.0897V13.1035L15.012 17.2297C14.8463 17.637 14.8463 18.0398 15.012 18.4471C15.1823 18.8521 15.4723 19.1444 15.8774 19.3124C16.0754 19.3929 16.1721 19.432 16.1721 19.432H16.4851C17.1986 19.432 17.6889 19.1053 17.9605 18.4448L19.2587 15.3058L20.5707 12.1231L23.1694 5.84752L25.7404 12.0288H23.243C22.3315 12.0288 21.5904 12.7675 21.5904 13.6788C21.5904 14.5901 22.3315 15.3311 23.243 15.3311H27.103L28.3897 18.4448C28.6613 19.103 29.1539 19.432 29.8651 19.432C30.0746 19.432 30.2771 19.3906 30.4751 19.3124C30.8779 19.1421 31.1702 18.8521 31.3382 18.4471C31.5017 18.0398 31.5017 17.6347 31.3382 17.2297L29.6212 13.1035L29.635 13.1012Z" fill="#2A3540"/>
</svg>
