<svg width="29" height="38" viewBox="0 0 29 38" fill="none" xmlns="http://www.w3.org/2000/svg">
<path d="M23.4271 28.1218C22.9392 28.1218 22.4673 28.1954 22.0231 28.3312L9.61898 19.0777C9.61898 19.0662 9.61898 19.0547 9.61898 19.0432C9.61898 19.011 9.61438 18.9811 9.61438 18.9511L22.076 9.42379C22.5041 9.54806 22.9553 9.6194 23.4248 9.6194C26.081 9.6194 28.2355 7.46539 28.2355 4.8097C28.2355 2.15401 26.0833 0 23.4271 0C20.7709 0 18.6188 2.15401 18.6188 4.8097C18.6188 4.83962 18.6234 4.87183 18.6234 4.90175L6.15946 14.4291C5.73134 14.3048 5.2802 14.2335 4.81064 14.2335C2.15443 14.2335 0 16.3852 0 19.0432C0 21.7012 2.15443 23.8506 4.81064 23.8506C5.29861 23.8506 5.77047 23.7769 6.2147 23.6412L18.6211 32.8947C18.6211 32.9062 18.6211 32.9177 18.6211 32.9292C18.6211 35.5849 20.7732 37.7389 23.4294 37.7389C26.0856 37.7389 28.2401 35.5849 28.2401 32.9292C28.2401 30.2735 26.0879 28.1218 23.4294 28.1218H23.4271ZM23.4271 2.27598C24.8266 2.27598 25.9614 3.41282 25.9614 4.8074C25.9614 6.20198 24.8243 7.34112 23.4271 7.34112C22.03 7.34112 20.8975 6.20428 20.8975 4.8074C20.8975 3.41051 22.0323 2.27598 23.4271 2.27598ZM2.27412 19.0432C2.27412 17.6463 3.41118 16.5095 4.81064 16.5095C6.2101 16.5095 7.34486 17.6463 7.34486 19.0432C7.34486 20.4401 6.2078 21.5746 4.81064 21.5746C3.41348 21.5746 2.27412 20.4378 2.27412 19.0432ZM23.4271 35.4629C22.0323 35.4629 20.8975 34.3284 20.8975 32.9292C20.8975 31.53 22.0323 30.3978 23.4271 30.3978C24.822 30.3978 25.9614 31.5323 25.9614 32.9292C25.9614 34.3261 24.8243 35.4629 23.4271 35.4629Z" fill="#F26522"/>
<path d="M23.4272 14.0425C20.7709 14.0425 18.6188 16.1965 18.6188 18.8522C18.6188 18.8821 18.6234 18.9143 18.6234 18.9442L6.16178 28.4716C5.73366 28.3473 5.28021 28.276 4.81296 28.276C2.15675 28.276 0.00231934 30.43 0.00231934 33.0857C0.00231934 35.7414 2.15675 37.8954 4.81296 37.8954C7.46917 37.8954 9.6236 35.7414 9.6236 33.0857C9.6236 33.0558 9.619 33.0235 9.619 32.9936L22.0806 23.4663C22.5088 23.5928 22.9622 23.6619 23.4295 23.6619C26.0857 23.6619 28.2401 21.5079 28.2401 18.8522C28.2401 16.1965 26.0857 14.0425 23.4295 14.0425H23.4272ZM4.81066 35.6171C3.4112 35.6171 2.27414 34.4826 2.27414 33.0857C2.27414 31.6888 3.4112 30.5519 4.81066 30.5519C6.21012 30.5519 7.34488 31.6888 7.34488 33.0857C7.34488 34.4826 6.20782 35.6171 4.81066 35.6171ZM23.4272 21.3836C22.0323 21.3836 20.8975 20.2491 20.8975 18.8522C20.8975 17.4553 22.0323 16.3185 23.4272 16.3185C24.822 16.3185 25.9614 17.4553 25.9614 18.8522C25.9614 20.2491 24.8243 21.3836 23.4272 21.3836Z" fill="#00AEEF"/>
<path d="M9.38416 26.0069L14.128 29.5439L18.8282 25.9493L14.0866 22.4122L9.38416 26.0069Z" fill="#225640"/>
</svg>
