<svg width="411" height="118" viewBox="0 0 411 118" fill="none" xmlns="http://www.w3.org/2000/svg">
<path d="M146.136 68H138.87V39.4278C138.87 37.0878 139.013 34.2244 139.301 30.8376H139.177C138.726 32.7671 138.326 34.1526 137.977 34.9942L124.799 68H119.75L106.541 35.2405C106.172 34.2757 105.782 32.8081 105.371 30.8376H105.248C105.412 32.6029 105.494 35.4868 105.494 39.4894V68H98.7207V23.8485H109.035L120.642 53.2521C121.525 55.5099 122.1 57.193 122.367 58.3015H122.521C123.28 55.982 123.896 54.2578 124.368 53.1289L136.191 23.8485H146.136V68ZM159.837 29.8524C158.667 29.8524 157.661 29.4727 156.82 28.7132C155.999 27.9537 155.588 26.989 155.588 25.819C155.588 24.649 155.999 23.674 156.82 22.8941C157.661 22.1141 158.667 21.7241 159.837 21.7241C161.048 21.7241 162.074 22.1141 162.916 22.8941C163.757 23.674 164.178 24.649 164.178 25.819C164.178 26.9274 163.757 27.8819 162.916 28.6824C162.074 29.4624 161.048 29.8524 159.837 29.8524ZM163.378 68H156.235V36.472H163.378V68ZM195.306 66.5529C192.781 68.0103 189.795 68.7389 186.346 68.7389C181.666 68.7389 177.89 67.2816 175.016 64.3669C172.142 61.4317 170.705 57.6344 170.705 52.9749C170.705 47.7819 172.245 43.6151 175.324 40.4746C178.423 37.3136 182.559 35.7331 187.732 35.7331C190.605 35.7331 193.14 36.236 195.337 37.2418V43.8922C193.14 42.2501 190.8 41.4291 188.317 41.4291C185.299 41.4291 182.826 42.4554 180.897 44.508C178.967 46.54 178.002 49.2084 178.002 52.5131C178.002 55.7768 178.906 58.3528 180.712 60.2412C182.539 62.1296 184.981 63.0738 188.04 63.0738C190.605 63.0738 193.027 62.1603 195.306 60.3335V66.5529ZM220.707 43.2764C219.845 42.599 218.603 42.2604 216.981 42.2604C214.867 42.2604 213.102 43.2148 211.686 45.1237C210.269 47.0327 209.561 49.6292 209.561 52.9134V68H202.418V36.472H209.561V42.9685H209.684C210.382 40.7517 211.45 39.0275 212.886 37.796C214.344 36.5439 215.965 35.9178 217.751 35.9178C219.044 35.9178 220.029 36.1128 220.707 36.5028V43.2764ZM239.18 68.7389C234.316 68.7389 230.426 67.2713 227.511 64.3361C224.617 61.3804 223.17 57.4701 223.17 52.6055C223.17 47.3098 224.679 43.1738 227.696 40.1975C230.734 37.2212 234.818 35.7331 239.95 35.7331C244.876 35.7331 248.715 37.1802 251.465 40.0743C254.216 42.9685 255.591 46.9813 255.591 52.1129C255.591 57.1417 254.103 61.1751 251.126 64.2129C248.171 67.2303 244.189 68.7389 239.18 68.7389ZM239.519 41.4291C236.727 41.4291 234.521 42.404 232.899 44.354C231.278 46.304 230.467 48.9929 230.467 52.4207C230.467 55.7254 231.288 58.3322 232.93 60.2412C234.572 62.1296 236.768 63.0738 239.519 63.0738C242.331 63.0738 244.486 62.1398 245.985 60.272C247.504 58.4041 248.263 55.746 248.263 52.2976C248.263 48.8287 247.504 46.15 245.985 44.2617C244.486 42.3733 242.331 41.4291 239.519 41.4291ZM260.917 67.0148V60.3951C263.586 62.4272 266.531 63.4432 269.754 63.4432C274.064 63.4432 276.219 62.1706 276.219 59.6254C276.219 58.907 276.035 58.3015 275.665 57.8088C275.296 57.2957 274.793 56.8441 274.157 56.4541C273.541 56.0641 272.802 55.7152 271.94 55.4073C271.098 55.0994 270.154 54.7505 269.107 54.3605C267.814 53.8473 266.644 53.3034 265.597 52.7286C264.571 52.1539 263.709 51.5073 263.011 50.7889C262.334 50.05 261.82 49.2187 261.472 48.295C261.123 47.3713 260.948 46.2937 260.948 45.0622C260.948 43.5432 261.307 42.209 262.026 41.0596C262.744 39.8896 263.709 38.9146 264.92 38.1346C266.131 37.3341 267.506 36.7389 269.046 36.3489C270.585 35.9383 272.176 35.7331 273.818 35.7331C276.733 35.7331 279.339 36.1744 281.638 37.057V43.3072C279.422 41.7883 276.876 41.0288 274.003 41.0288C273.1 41.0288 272.278 41.1212 271.54 41.3059C270.821 41.4906 270.205 41.7472 269.692 42.0756C269.179 42.404 268.779 42.8043 268.491 43.2764C268.204 43.728 268.06 44.2309 268.06 44.7851C268.06 45.4624 268.204 46.0372 268.491 46.5093C268.779 46.9813 269.2 47.4021 269.754 47.7716C270.328 48.1205 271.006 48.449 271.786 48.7569C272.586 49.0442 273.5 49.3624 274.526 49.7113C275.881 50.2655 277.092 50.83 278.159 51.4047C279.247 51.9794 280.171 52.6363 280.93 53.3752C281.69 54.0936 282.275 54.9352 282.685 55.8999C283.096 56.8441 283.301 57.973 283.301 59.2867C283.301 60.8877 282.931 62.2835 282.193 63.474C281.454 64.6645 280.468 65.6498 279.237 66.4298C278.005 67.2097 276.579 67.7845 274.957 68.1539C273.356 68.5439 271.663 68.7389 269.877 68.7389C266.429 68.7389 263.442 68.1642 260.917 67.0148ZM304.084 68.7389C299.219 68.7389 295.329 67.2713 292.414 64.3361C289.52 61.3804 288.073 57.4701 288.073 52.6055C288.073 47.3098 289.582 43.1738 292.599 40.1975C295.637 37.2212 299.722 35.7331 304.853 35.7331C309.78 35.7331 313.618 37.1802 316.368 40.0743C319.119 42.9685 320.494 46.9813 320.494 52.1129C320.494 57.1417 319.006 61.1751 316.03 64.2129C313.074 67.2303 309.092 68.7389 304.084 68.7389ZM304.422 41.4291C301.631 41.4291 299.424 42.404 297.803 44.354C296.181 46.304 295.37 48.9929 295.37 52.4207C295.37 55.7254 296.191 58.3322 297.833 60.2412C299.475 62.1296 301.672 63.0738 304.422 63.0738C307.234 63.0738 309.39 62.1398 310.888 60.272C312.407 58.4041 313.166 55.746 313.166 52.2976C313.166 48.8287 312.407 46.15 310.888 44.2617C309.39 42.3733 307.234 41.4291 304.422 41.4291ZM344.571 27.1429C343.606 26.5887 342.508 26.3116 341.277 26.3116C337.808 26.3116 336.073 28.2719 336.073 32.1923V36.472H343.401V42.0756H336.104V68H328.961V42.0756H323.573V36.472H328.961V31.361C328.961 28.0358 330.049 25.4188 332.225 23.5098C334.4 21.5804 337.12 20.6157 340.384 20.6157C342.149 20.6157 343.545 20.8107 344.571 21.2007V27.1429ZM366.277 67.6613C364.882 68.3592 363.045 68.7081 360.766 68.7081C354.649 68.7081 351.591 65.7729 351.591 59.9025V42.0756H346.326V36.472H351.591V29.175L358.734 27.1429V36.472H366.277V42.0756H358.734V57.8396C358.734 59.7075 359.073 61.0417 359.75 61.8422C360.427 62.6427 361.556 63.043 363.137 63.043C364.348 63.043 365.395 62.694 366.277 61.9961V67.6613Z" fill="#5D5D5D"/>
<path d="M95.7546 105.552V101.488C96.2199 101.898 96.7741 102.268 97.4173 102.596C98.0741 102.924 98.7583 103.205 99.4699 103.437C100.195 103.656 100.92 103.827 101.646 103.951C102.371 104.074 103.041 104.135 103.657 104.135C105.778 104.135 107.359 103.745 108.399 102.965C109.452 102.172 109.979 101.036 109.979 99.5581C109.979 98.7644 109.801 98.0734 109.446 97.485C109.103 96.8965 108.624 96.3629 108.009 95.8839C107.393 95.3913 106.661 94.926 105.812 94.4882C104.978 94.0366 104.075 93.5645 103.103 93.0719C102.077 92.5519 101.119 92.025 100.229 91.4914C99.3399 90.9577 98.5667 90.3693 97.9099 89.7261C97.253 89.083 96.7331 88.3577 96.3499 87.5504C95.9804 86.7293 95.7957 85.7714 95.7957 84.6767C95.7957 83.3357 96.0899 82.1725 96.6783 81.1873C97.2667 80.1884 98.0399 79.3673 98.9978 78.7242C99.9556 78.081 101.044 77.6021 102.261 77.2873C103.493 76.9726 104.745 76.8152 106.018 76.8152C108.919 76.8152 111.033 77.1642 112.36 77.8621V81.7415C110.622 80.5373 108.392 79.9352 105.669 79.9352C104.916 79.9352 104.163 80.0173 103.411 80.1815C102.658 80.332 101.988 80.5852 101.399 80.941C100.811 81.2968 100.332 81.7552 99.9625 82.3162C99.593 82.8773 99.4083 83.5615 99.4083 84.3688C99.4083 85.1214 99.5451 85.7714 99.8188 86.3188C100.106 86.8662 100.524 87.3656 101.071 87.8172C101.618 88.2688 102.282 88.7067 103.062 89.1309C103.856 89.5551 104.766 90.0203 105.792 90.5266C106.846 91.0466 107.844 91.594 108.789 92.1687C109.733 92.7434 110.561 93.3797 111.272 94.0776C111.984 94.7755 112.545 95.5487 112.955 96.3971C113.38 97.2455 113.592 98.217 113.592 99.3118C113.592 100.762 113.304 101.994 112.73 103.006C112.169 104.005 111.402 104.82 110.431 105.449C109.473 106.079 108.364 106.53 107.106 106.804C105.847 107.091 104.519 107.235 103.123 107.235C102.658 107.235 102.084 107.194 101.399 107.112C100.715 107.043 100.017 106.934 99.3056 106.783C98.5941 106.646 97.9167 106.475 97.2736 106.27C96.6441 106.051 96.1378 105.812 95.7546 105.552ZM127.796 107.235C124.689 107.235 122.206 106.256 120.345 104.3C118.497 102.329 117.574 99.7223 117.574 96.4792C117.574 92.9487 118.539 90.1914 120.468 88.2072C122.397 86.223 125.004 85.2309 128.288 85.2309C131.422 85.2309 133.865 86.1956 135.616 88.1251C137.381 90.0545 138.264 92.7298 138.264 96.1508C138.264 99.5033 137.313 102.192 135.411 104.217C133.523 106.229 130.984 107.235 127.796 107.235ZM128.042 88.0635C125.88 88.0635 124.17 88.8024 122.911 90.2803C121.652 91.7445 121.022 93.7697 121.022 96.356C121.022 98.8465 121.658 100.81 122.931 102.247C124.204 103.684 125.907 104.402 128.042 104.402C130.218 104.402 131.887 103.697 133.05 102.288C134.227 100.879 134.816 98.8739 134.816 96.2739C134.816 93.6466 134.227 91.6213 133.05 90.1982C131.887 88.7751 130.218 88.0635 128.042 88.0635ZM147.008 106.742H143.642V75.6247H147.008V106.742ZM170.818 106.742H167.452V103.417H167.37C165.974 105.962 163.812 107.235 160.884 107.235C155.875 107.235 153.371 104.252 153.371 98.2855V85.7235H156.717V97.7518C156.717 102.185 158.414 104.402 161.807 104.402C163.449 104.402 164.797 103.8 165.851 102.596C166.918 101.378 167.452 99.7907 167.452 97.8339V85.7235H170.818V106.742ZM187.383 106.537C186.589 106.975 185.542 107.194 184.242 107.194C180.561 107.194 178.721 105.141 178.721 101.036V88.5972H175.108V85.7235H178.721V80.592L182.087 79.5042V85.7235H187.383V88.5972H182.087V100.441C182.087 101.85 182.327 102.856 182.806 103.458C183.284 104.06 184.078 104.361 185.187 104.361C186.035 104.361 186.767 104.129 187.383 103.663V106.537ZM193.602 80.3868C193 80.3868 192.487 80.1815 192.063 79.771C191.639 79.3605 191.426 78.8405 191.426 78.211C191.426 77.5815 191.639 77.0616 192.063 76.651C192.487 76.2268 193 76.0147 193.602 76.0147C194.218 76.0147 194.738 76.2268 195.162 76.651C195.6 77.0616 195.819 77.5815 195.819 78.211C195.819 78.8131 195.6 79.3263 195.162 79.7505C194.738 80.1747 194.218 80.3868 193.602 80.3868ZM195.244 106.742H191.878V85.7235H195.244V106.742ZM210.844 107.235C207.738 107.235 205.254 106.256 203.393 104.3C201.546 102.329 200.622 99.7223 200.622 96.4792C200.622 92.9487 201.587 90.1914 203.516 88.2072C205.446 86.223 208.053 85.2309 211.337 85.2309C214.47 85.2309 216.913 86.1956 218.664 88.1251C220.43 90.0545 221.312 92.7298 221.312 96.1508C221.312 99.5033 220.361 102.192 218.459 104.217C216.571 106.229 214.032 107.235 210.844 107.235ZM211.09 88.0635C208.928 88.0635 207.218 88.8024 205.959 90.2803C204.7 91.7445 204.07 93.7697 204.07 96.356C204.07 98.8465 204.707 100.81 205.979 102.247C207.252 103.684 208.956 104.402 211.09 104.402C213.266 104.402 214.936 103.697 216.099 102.288C217.276 100.879 217.864 98.8739 217.864 96.2739C217.864 93.6466 217.276 91.6213 216.099 90.1982C214.936 88.7751 213.266 88.0635 211.09 88.0635ZM244.137 106.742H240.771V94.755C240.771 90.294 239.143 88.0635 235.886 88.0635C234.203 88.0635 232.807 88.6998 231.699 89.9724C230.604 91.2314 230.056 92.8255 230.056 94.755V106.742H226.69V85.7235H230.056V89.213H230.139C231.726 86.5583 234.025 85.2309 237.035 85.2309C239.334 85.2309 241.093 85.9767 242.31 87.4682C243.528 88.9461 244.137 91.0877 244.137 93.8929V106.742ZM249.228 105.983V102.37C251.061 103.725 253.08 104.402 255.283 104.402C258.239 104.402 259.717 103.417 259.717 101.446C259.717 100.885 259.587 100.413 259.327 100.03C259.08 99.6333 258.738 99.2844 258.3 98.9833C257.876 98.6823 257.37 98.4155 256.781 98.1828C256.207 97.9365 255.584 97.6834 254.913 97.4234C253.983 97.0539 253.162 96.6844 252.45 96.315C251.752 95.9318 251.164 95.5076 250.685 95.0424C250.22 94.5634 249.864 94.0229 249.618 93.4208C249.385 92.8187 249.269 92.114 249.269 91.3066C249.269 90.3214 249.495 89.4524 249.946 88.6998C250.398 87.9335 251 87.2972 251.752 86.7909C252.505 86.2709 253.36 85.8809 254.318 85.6209C255.29 85.3609 256.289 85.2309 257.315 85.2309C259.135 85.2309 260.763 85.5456 262.2 86.1751V89.5824C260.654 88.5698 258.875 88.0635 256.863 88.0635C256.234 88.0635 255.666 88.1388 255.16 88.2893C254.653 88.4261 254.216 88.6245 253.846 88.8845C253.49 89.1445 253.21 89.4593 253.005 89.8287C252.813 90.1845 252.717 90.5814 252.717 91.0193C252.717 91.5666 252.813 92.025 253.005 92.3945C253.21 92.764 253.504 93.0924 253.887 93.3797C254.27 93.6671 254.736 93.9271 255.283 94.1597C255.83 94.3924 256.453 94.6455 257.151 94.9192C258.081 95.275 258.916 95.6444 259.655 96.0276C260.394 96.3971 261.023 96.8213 261.543 97.3002C262.063 97.7655 262.46 98.306 262.734 98.9218C263.021 99.5376 263.165 100.27 263.165 101.118C263.165 102.158 262.932 103.061 262.467 103.827C262.015 104.594 261.407 105.23 260.64 105.736C259.874 106.243 258.991 106.619 257.992 106.865C256.993 107.112 255.947 107.235 254.852 107.235C252.69 107.235 250.815 106.817 249.228 105.983ZM283.794 95.6171V106.742H280.345V77.3079H288.432C291.58 77.3079 294.016 78.0742 295.74 79.6068C297.478 81.1394 298.347 83.3015 298.347 86.093C298.347 88.8845 297.382 91.1698 295.452 92.9487C293.537 94.7276 290.943 95.6171 287.673 95.6171H283.794ZM283.794 80.4278V92.4971H287.406C289.787 92.4971 291.6 91.9566 292.846 90.8756C294.104 89.7808 294.734 88.2414 294.734 86.2572C294.734 82.371 292.435 80.4278 287.837 80.4278H283.794ZM317.066 106.742H313.7V103.458H313.618C312.154 105.976 309.998 107.235 307.152 107.235C305.059 107.235 303.416 106.681 302.226 105.572C301.049 104.464 300.461 102.993 300.461 101.159C300.461 97.2318 302.773 94.9466 307.398 94.3034L313.7 93.4208C313.7 89.8493 312.256 88.0635 309.369 88.0635C306.837 88.0635 304.552 88.9256 302.513 90.6498V87.2014C304.58 85.8877 306.961 85.2309 309.656 85.2309C314.596 85.2309 317.066 87.8446 317.066 93.0719V106.742ZM313.7 96.1097L308.63 96.8076C307.07 97.0265 305.893 97.4165 305.1 97.9776C304.306 98.5249 303.909 99.5033 303.909 100.913C303.909 101.939 304.272 102.781 304.997 103.437C305.736 104.081 306.714 104.402 307.932 104.402C309.602 104.402 310.977 103.821 312.058 102.658C313.153 101.481 313.7 99.996 313.7 98.2034V96.1097ZM334.37 89.1309C333.781 88.6793 332.933 88.4535 331.824 88.4535C330.388 88.4535 329.183 89.1309 328.212 90.4856C327.254 91.8403 326.775 93.6876 326.775 96.0276V106.742H323.409V85.7235H326.775V90.0545H326.857C327.336 88.5767 328.068 87.4272 329.053 86.6062C330.039 85.7714 331.14 85.3541 332.358 85.3541C333.234 85.3541 333.904 85.4499 334.37 85.6414V89.1309ZM347.773 106.537C346.98 106.975 345.933 107.194 344.633 107.194C340.952 107.194 339.111 105.141 339.111 101.036V88.5972H335.499V85.7235H339.111V80.592L342.477 79.5042V85.7235H347.773V88.5972H342.477V100.441C342.477 101.85 342.717 102.856 343.196 103.458C343.675 104.06 344.469 104.361 345.577 104.361C346.425 104.361 347.157 104.129 347.773 103.663V106.537ZM369.716 106.742H366.349V94.755C366.349 90.294 364.721 88.0635 361.464 88.0635C359.781 88.0635 358.385 88.6998 357.277 89.9724C356.182 91.2314 355.635 92.8255 355.635 94.755V106.742H352.268V85.7235H355.635V89.213H355.717C357.304 86.5583 359.603 85.2309 362.614 85.2309C364.912 85.2309 366.671 85.9767 367.889 87.4682C369.107 88.9461 369.716 91.0877 369.716 93.8929V106.742ZM392.972 97.0744H378.131C378.186 99.4144 378.815 101.221 380.02 102.493C381.224 103.766 382.88 104.402 384.987 104.402C387.354 104.402 389.53 103.622 391.514 102.062V105.223C389.667 106.564 387.224 107.235 384.186 107.235C381.217 107.235 378.884 106.284 377.187 104.382C375.49 102.466 374.642 99.777 374.642 96.315C374.642 93.0445 375.565 90.3829 377.413 88.3303C379.274 86.2641 381.58 85.2309 384.33 85.2309C387.081 85.2309 389.208 86.1204 390.714 87.8993C392.219 89.6782 392.972 92.1482 392.972 95.3092V97.0744ZM389.523 94.2213C389.509 92.2782 389.037 90.7661 388.107 89.6851C387.19 88.604 385.911 88.0635 384.268 88.0635C382.681 88.0635 381.333 88.6314 380.225 89.7672C379.116 90.9029 378.432 92.3877 378.172 94.2213H389.523ZM409.043 89.1309C408.455 88.6793 407.607 88.4535 406.498 88.4535C405.061 88.4535 403.857 89.1309 402.886 90.4856C401.928 91.8403 401.449 93.6876 401.449 96.0276V106.742H398.082V85.7235H401.449V90.0545H401.531C402.01 88.5767 402.742 87.4272 403.727 86.6062C404.712 85.7714 405.814 85.3541 407.032 85.3541C407.908 85.3541 408.578 85.4499 409.043 85.6414V89.1309Z" fill="#5D5D5D"/>
<rect y="24.9598" width="40.6851" height="40.6851" fill="#F0511B"/>
<rect x="44.3843" y="24.9598" width="40.4209" height="40.6851" fill="#80CB28"/>
<rect x="0.000488281" y="69.3434" width="40.6851" height="40.6851" fill="#01ACEE"/>
<rect x="44.3843" y="69.3434" width="40.4209" height="40.6851" fill="#FABB0A"/>
</svg>
