<svg width="24" height="24" viewBox="0 0 24 24" fill="none" xmlns="http://www.w3.org/2000/svg">
<path d="M1.5 8.7C1.5 6.17977 1.5 4.91965 1.99047 3.95705C2.4219 3.11031 3.11031 2.4219 3.95705 1.99047C4.91965 1.5 6.17977 1.5 8.7 1.5H15.3C17.8202 1.5 19.0804 1.5 20.0429 1.99047C20.8897 2.4219 21.5781 3.11031 22.0095 3.95705C22.5 4.91965 22.5 6.17977 22.5 8.7V15.3C22.5 17.8202 22.5 19.0804 22.0095 20.0429C21.5781 20.8897 20.8897 21.5781 20.0429 22.0095C19.0804 22.5 17.8202 22.5 15.3 22.5H8.7C6.17977 22.5 4.91965 22.5 3.95705 22.0095C3.11031 21.5781 2.4219 20.8897 1.99047 20.0429C1.5 19.0804 1.5 17.8202 1.5 15.3V8.7Z" fill="#4087FC"/>
<path d="M6.2 7.5C5.67533 7.5 5.25 7.9797 5.25 8.57145V13.7678C5.25 15.2767 6.33459 16.5 7.6725 16.5L13.3 16.4465C13.8247 16.4465 14.25 15.9667 14.25 15.375V10.125C14.25 8.61608 12.9629 7.5 11.625 7.5H6.2Z" fill="white"/>
<path d="M15.5342 9.5459C15.1947 9.8816 15 10.366 15 10.8752V13.0497C15 13.5588 15.1947 14.0433 15.5342 14.379L17.6466 16.2396C18.0764 16.6645 18.75 16.3203 18.75 15.6756V8.3516C18.75 7.70682 18.0764 7.3626 17.6466 7.7876L15.5342 9.5459Z" fill="white"/>
</svg>
